/* XPM */

static char *
data[] = {
  /* width height num_colors chars_per_pixel x_hot y_hot */
  "16 16 2 1 0 0",

  /* colors */
  ". s symbol1 c #efebe7 m white",
  "# s symbol2 c #000000 m black",

  /* pixels */
  "................",
  "................",
  "................",
  "................",
  "...#########....",
  "...#...#...#....",
  "...#########....",
  "...#...#...#....",
  "...#...#...#....",
  "...#............",
  "...#....#####...",
  "...####..###....",
  "..........#.....",
  "................",
  "................",
  "................",
};
